# AST/ASF file generated using VICON BodyLanguage
# -----------------------------------------------
:version 1.10
:name VICON
:units
  mass 1.0
  length 0.45
  angle deg
:documentation
   .ast/.asf automatically generated from VICON data using
   VICON BodyBuilder and BodyLanguage model FoxedUp or BRILLIANT.MOD
:root
   order TX TY TZ RX RY RZ
   axis XYZ
   position 0 0 0  
   orientation 0 0 0 
:bonedata
  begin
     id 1 
     name lhipjoint
     direction 0.692814 -0.645514 0.321437 
     length 2.38754 
     axis 0 0 0  XYZ
  end
  begin
     id 2 
     name lfemur
     direction 0.34202 -0.939693 0  
     length 6.41921  
     axis 0 0 20  XYZ
    dof rx ry rz
    limits (-160.0 20.0)
           (-70.0 70.0)
           (-60.0 70.0)
  end
  begin
     id 3 
     name ltibia
     direction 0.34202 -0.939693 0   
     length 6.98247   
     axis 0 0 20   XYZ
    dof rx
    limits (-10.0 170.0)
  end
  begin
     id 4 
     name lfoot
     direction 0.0947186 -0.260237 0.960888   
     length 1.83034   
     axis -90 7.62852e-016 20   XYZ
    dof rx rz
    limits (-45.0 90.0)
           (-70.0 20.0)
  end
  begin
     id 5 
     name ltoes
     direction 1.53538e-011 -4.21952e-011 1   
     length 0.920499   
     axis -90 7.62852e-016 20   XYZ
    dof rx
    limits (-90.0 20.0)
  end
  begin
     id 6 
     name rhipjoint
     direction -0.631686 -0.693949 0.345555   
     length 2.2209  
     axis 0 0 0  XYZ 
  end
  begin
     id 7 
     name rfemur
     direction -0.34202 -0.939693 0   
     length 6.49542   
     axis 0 0 -20   XYZ
    dof rx ry rz
    limits (-160.0 20.0)
           (-70.0 70.0)
           (-70.0 60.0)
  end
  begin
     id 8 
     name rtibia
     direction -0.34202 -0.939693 0   
     length 7.21712   
     axis 0 0 -20   XYZ
    dof rx
    limits (-10.0 170.0)
 end
 begin
     id 9 
     name rfoot
     direction -0.0825378 -0.226771 0.970444   
     length 1.89724  
     axis -90 -7.62852e-016 -20   XYZ
    dof rx rz
    limits (-45.0 90.0)
           (-20.0 70.0)
  end
  begin
     id 10 
     name rtoes
     direction -1.53515e-011 -4.22016e-011 1   
     length 0.955868   
     axis -90 -7.62852e-016 -20   XYZ
    dof rx
    limits (-90.0 20.0)
  end
  begin
     id 11 
     name lowerback
     direction -0.0104711 0.984802 -0.173368   
     length 1.84931   
     axis 0 0 0   XYZ
    dof rx ry rz
    limits (-20.0 45.0)
           (-30.0 30.0)
           (-30.0 30.0)
  end
  begin
     id 12 
     name upperback
     direction -0.00286433 0.999996 -0.000382853   
     length 1.85768   
     axis 0 0 0   XYZ
    dof rx ry rz
    limits (-20.0 45.0)
           (-30.0 30.0)
           (-30.0 30.0)
  end
  begin
     id 13 
     name thorax
     direction 0.00167534 0.996793 0.0800069   
     length 1.92   
     axis 0 0 0   XYZ
    dof rx ry rz
    limits (-20.0 45.0)
           (-30.0 30.0)
           (-30.0 30.0)
  end
  begin
     id 14 
     name lowerneck
     direction -0.0672491 0.995415 0.068018   
     length 1.58923   
     axis 0 0 0   XYZ
    dof rx ry rz
    limits (-20.0 45.0)
           (-30.0 30.0)
           (-30.0 30.0)
  end
  begin
     id 15 
     name upperneck
     direction 0.0958019 0.982476 -0.159884   
     length 1.60189   
     axis 0 0 0   XYZ
    dof rx ry rz
    limits (-20.0 45.0)
           (-30.0 30.0)
           (-30.0 30.0)
  end
  begin
     id 16
     name head
     direction 0.032989 0.997338 -0.0650226  
     length 1.61681  
     axis 0 0 0   XYZ
    dof rx ry rz
    limits (-20.0 45.0)
           (-30.0 30.0)
           (-30.0 30.0)
  end
  begin
     id 17 
     name lclavicle
     direction 0.954279 0.298875 -0.00496069  
     length 2.99449  
     axis 0 0 0   XYZ
    dof ry rz
    limits (-20.0 10.0)
           (0.0 20.0)
  end
  begin
     id 18 
     name lhumerus
     direction 1 -4.48985e-011 -4.2057e-027   
     length 4.79185   
     axis 180 -30 -90   XYZ
    dof rx ry rz
    limits (-60.0 90.0)
           (-90.0 90.0)
           (-90.0 90.0)
  end
  begin
     id 19
     name lradius
     direction 1 -4.48945e-011 1.15441e-028   
     length 2.65553   
     axis 180 -30 -90   XYZ
    dof rx
    limits (-10.0 170.0)
  end
  begin
     id 20
     name lwrist
     direction 1 -4.4899e-011 4.8894e-028   
     length 1.32777   
     axis -2.56392e-016 90 90   XYZ
    dof ry
    limits (-180.0 0.0)
 end
  begin
     id 21 
     name lhand
     direction 1 -4.48908e-011 9.7788e-028   
     length 0.743904   
     axis -6.23971e-016 90 90   XYZ
    dof rx rz
    limits (-90.0 90.0)
           (-45.0 45.0)
  end
  begin
     id 22 
     name lfingers
     direction 1 -4.49068e-011 1.95576e-027   
     length 0.599754   
     axis -1.24794e-015 90 90   XYZ
    dof rx
    limits (0.0 90.0)
  end
  begin
     id 23
     name lthumb
     direction 0.707107 -6.34883e-011 0.707107   
     length 0.861131   
     axis -90 45 2.85299e-015   XYZ
    dof rx rz
    limits (-45.0 45.0)
           (-45.0 45.0)
  end
  begin
     id 24 
     name rclavicle
     direction -0.957921 0.286916 0.00811568   
     length 3.06817  
     axis 0 0 0   XYZ 
    dof ry rz
    limits (-10.0 20.0)
           (-20.0 0.0)
  end
  begin
     id 25 
     name rhumerus
     direction -1 -4.48971e-011 -3.07942e-027  
     length 4.77254   
     axis 180 30 90   XYZ
    dof rx ry rz
    limits (-90.0 60.0)
           (-90.0 90.0)
           (-90.0 90.0)
  end
  begin
     id 26 
     name rradius
     direction -1 -4.48957e-011 -9.6815e-028   
     length 2.75995   
     axis 180 30 90   XYZ
    dof rx
    limits (-10.0 170.0)
  end
  begin
     id 27 
     name rwrist
     direction -1 -4.48979e-011 4.8894e-028   
     length 1.37997   
     axis -2.56392e-016 -90 -90   XYZ
    dof ry
    limits (-180.0 0.0)
  end
  begin
     id 28
     name rhand
     direction -1 -4.48906e-011 9.7788e-028   
     length 0.701619   
     axis -6.23971e-016 -90 -90   XYZ
    dof rx rz
    limits (-90.0 90.0)
           (-45.0 45.0)
  end
  begin
     id 29
     name rfingers
     direction -1 -4.49018e-011 1.95576e-027   
     length 0.565663   
     axis -1.24794e-015 -90 -90   XYZ
    dof rx
    limits (0.0 90.0)
  end
  begin
     id 30
     name rthumb
     direction -0.707107 -6.34881e-011 0.707107   
     length 0.812183   
     axis -90 -45 -2.85299e-015   XYZ
    dof rx rz
    limits (-45.0 45.0)
           (-45.0 45.0)
  end
:hierarchy
  begin
    root lhipjoint rhipjoint lowerback
    lhipjoint lfemur
    lfemur ltibia
    ltibia lfoot
    lfoot ltoes
    rhipjoint rfemur
    rfemur rtibia
    rtibia rfoot
    rfoot rtoes
    lowerback upperback
    upperback thorax
    thorax lowerneck lclavicle rclavicle
    lowerneck upperneck
    upperneck head
    lclavicle lhumerus
    lhumerus lradius
    lradius lwrist
    lwrist lhand lthumb
    lhand lfingers
    rclavicle rhumerus
    rhumerus rradius
    rradius rwrist
    rwrist rhand rthumb
    rhand rfingers
  end

#!OML:ASF F:\VICON\USERDATA\INSTALL\rory3\rory3.ASF
:FULLY-SPECIFIED
:DEGREES
281
root 0.47487 16.1025 -0.236931 -2.81956 -1.42744 -0.427005
lowerback 7.72925 0.10883 -0.487394
upperback 1.14812 0.104435 0.0191082
thorax -3.14692 0.0572502 0.2829
lowerneck -3.71349 -4.64784 -12.0811
upperneck 20.201 -6.64708 7.92585
head 7.46187 -3.4626 4.10684
rclavicle 5.3734e-015 -1.69961e-014
rhumerus -5.89709 2.88411 -84.9499
rradius 17.9876
rwrist 63.0302
rhand -40.4558 31.0031
rfingers 7.12502
rthumb -13.4071 1.45455
lclavicle 5.3734e-015 -1.69961e-014
lhumerus -5.73659 7.91013 80.843
lradius 13.1015
lwrist -53.3922
lhand -40.712 -3.50811
lfingers 7.12502
lthumb -13.654 26.024
rfemur 1.77621 13.3552 17.5147
rtibia 15.0218
rfoot -10.6204 -13.7387
rtoes -5.36088
lfemur 6.0897 -10.8255 -18.4882
ltibia 7.08171
lfoot -6.88634 9.76507
ltoes -9.91843
282
root 0.47342 16.103 -0.235854 -2.79301 -1.42336 -0.392398
lowerback 7.76173 0.118419 -0.524693
upperback 1.12051 0.113236 0.00237042
thorax -3.19371 0.0621342 0.285605
lowerneck -3.72428 -4.64966 -12.0732
upperneck 20.239 -6.65564 7.9483
head 7.47741 -3.46448 4.11254
rclavicle -9.05713e-015 1.5207e-014
rhumerus -5.89554 2.65055 -84.8992
rradius 18.0084
rwrist 63.2231
rhand -40.5222 31.2173
rfingers 7.12502
rthumb -13.4711 1.67291
lclavicle -9.05713e-015 1.5207e-014
lhumerus -5.72674 7.74203 80.7886
lradius 13.1141
lwrist -53.351
lhand -40.6933 -3.19129
lfingers 7.12502
lthumb -13.636 26.3421
rfemur 1.76864 13.3713 17.4836
rtibia 14.995
rfoot -10.5897 -13.7921
rtoes -5.47965
lfemur 6.03446 -10.8193 -18.5192
ltibia 7.13274
lfoot -6.83854 9.73322
ltoes -9.93492
283
root 0.472764 16.1039 -0.233954 -2.74337 -1.40048 -0.458925
lowerback 7.70182 0.108671 -0.430057
upperback 1.13402 0.108591 0.00386666
thorax -3.1461 0.0586343 0.234538
lowerneck -3.74543 -4.66276 -12.0817
upperneck 20.2289 -6.68069 8.00271
head 7.48239 -3.47222 4.12951
rclavicle -1.00635e-015 -1.09332e-015
rhumerus -5.82073 2.29743 -84.8729
rradius 18.0116
rwrist 63.5137
rhand -40.5797 31.4355
rfingers 7.12502
rthumb -13.5266 1.89484
lclavicle -1.00635e-015 -1.09332e-015
lhumerus -5.66153 7.71122 80.7262
lradius 13.0858
lwrist -53.2922
lhand -40.6654 -3.15563
lfingers 7.12502
lthumb -13.6091 26.3795
rfemur 1.7306 13.3413 17.5489
rtibia 14.9968
rfoot -10.6254 -13.7878
rtoes -5.0066
lfemur 5.99734 -10.8376 -18.4322
ltibia 7.10713
lfoot -6.8375 9.74105
ltoes -10.0291
284
root 0.471906 16.1046 -0.233032 -2.71445 -1.39271 -0.491398
lowerback 7.6536 0.120213 -0.370178
upperback 1.17267 0.128909 -0.00468821
thorax -3.07926 0.0678594 0.190094
lowerneck -3.77288 -4.69812 -12.0916
upperneck 20.1866 -6.7381 8.07805
head 7.48214 -3.49334 4.15029
rclavicle -8.72168e-015 1.40143e-014
rhumerus -5.75127 2.10876 -84.8292
rradius 18.0504
rwrist 63.5941
rhand -40.6726 31.5466
rfingers 7.12502
rthumb -13.6161 2.01188
lclavicle -8.72168e-015 1.40143e-014
lhumerus -5.53916 7.47186 80.6566
lradius 13.0782
lwrist -53.1527
lhand -40.6524 -3.16787
lfingers 7.12502
lthumb -13.5966 26.3681
rfemur 1.71277 13.3509 17.5816
rtibia 14.9906
rfoot -10.6876 -13.7812
rtoes -4.34751
lfemur 5.9833 -10.8393 -18.3856
ltibia 7.076
lfoot -6.86521 9.76024
ltoes -10.475
285
root 0.471774 16.1057 -0.232549 -2.70141 -1.39647 -0.423643
lowerback 7.66101 0.12294 -0.433045
upperback 1.19489 0.126949 -0.0173761
thorax -3.06052 0.0674294 0.21254
lowerneck -3.76981 -4.70365 -12.0986
upperneck 20.1076 -6.74401 8.09285
head 7.45701 -3.49482 4.15507
rclavicle -5.77097e-015 1.49089e-014
rhumerus -5.70602 2.27866 -84.7664
rradius 18.1397
rwrist 63.4243
rhand -40.7264 31.4694
rfingers 7.12502
rthumb -13.6679 1.93818
lclavicle -5.77097e-015 1.49089e-014
lhumerus -5.45758 7.91786 80.5946
lradius 13.0641
lwrist -53.6795
lhand -40.6911 -3.13032
lfingers 7.12502
lthumb -13.6339 26.4032
rfemur 1.69271 13.3418 17.4957
rtibia 14.9853
rfoot -10.6879 -13.7448
rtoes -4.28833
lfemur 5.98465 -10.823 -18.4615
ltibia 7.05487
lfoot -6.87983 9.79073
ltoes -10.4311
286
root 0.471697 16.1063 -0.232007 -2.70737 -1.43462 -0.426407
lowerback 7.63631 0.131076 -0.427318
upperback 1.25719 0.13882 -0.00752594
thorax -2.98246 0.0730552 0.218402
lowerneck -3.83625 -4.71397 -12.1437
upperneck 20.087 -6.75104 8.12689
head 7.46571 -3.49695 4.17178
rclavicle 6.34869e-015 -1.58034e-014
rhumerus -5.57002 2.48108 -84.6953
rradius 18.1942
rwrist 63.2084
rhand -40.6848 31.4615
rfingers 7.12502
rthumb -13.6278 1.92764
lclavicle 6.34869e-015 -1.58034e-014
lhumerus -5.33262 8.11154 80.5638
lradius 13.0932
lwrist -53.7805
lhand -40.7487 -3.10882
lfingers 7.12502
lthumb -13.6894 26.4209
rfemur 1.68565 13.3786 17.5024
rtibia 14.9919
rfoot -10.6406 -13.7498
rtoes -4.56494
lfemur 6.02178 -10.7773 -18.4593
ltibia 7.02531
lfoot -6.8515 9.75465
ltoes -10.1789
